<mxfile host="app.diagrams.net" modified="2021-08-31T04:08:55.240Z" agent="5.0 (Windows NT 10.0; Win64; x64) AppleWebKit/537.36 (KHTML, like Gecko) Chrome/92.0.4515.159 Safari/537.36" etag="_jGImCWVv5DmVbmJOePX" version="15.0.3" type="github">
  <diagram id="iCk0-uuXN-dzac4KxJ9Y" name="Page-1">
    <mxGraphModel dx="1422" dy="786" grid="1" gridSize="10" guides="1" tooltips="1" connect="1" arrows="1" fold="1" page="1" pageScale="1" pageWidth="850" pageHeight="1100" math="0" shadow="0">
      <root>
        <mxCell id="0" />
        <mxCell id="1" parent="0" />
        <mxCell id="8YqOOLgah7Gyamwj7_4v-40" value="Determined Debt Destruction&lt;br&gt;&lt;br&gt;&lt;br&gt;&lt;br&gt;&lt;br&gt;&lt;br&gt;&lt;br&gt;&lt;br&gt;&lt;br&gt;&lt;br&gt;&lt;br&gt;&lt;br&gt;&lt;br&gt;&lt;br&gt;&lt;br&gt;&lt;br&gt;&lt;br&gt;&lt;br&gt;&lt;br&gt;&lt;br&gt;&lt;br&gt;&lt;br&gt;&lt;br&gt;&lt;br&gt;&lt;br&gt;&lt;br&gt;&lt;br&gt;&lt;br&gt;&lt;br&gt;&lt;br&gt;&lt;br&gt;&lt;br&gt;&lt;br&gt;&lt;br&gt;&lt;br&gt;&lt;br&gt;&lt;br&gt;&lt;br&gt;&lt;br&gt;&lt;br&gt;&lt;br&gt;&lt;br&gt;&lt;br&gt;&lt;br&gt;&lt;br&gt;&lt;br&gt;&lt;br&gt;&lt;br&gt;&lt;br&gt;&lt;br&gt;&lt;br&gt;&lt;br&gt;&lt;br&gt;&lt;br&gt;&lt;br&gt;&lt;br&gt;&lt;br&gt;&lt;br&gt;" style="rounded=0;whiteSpace=wrap;html=1;" vertex="1" parent="1">
          <mxGeometry x="140" y="90" width="540" height="840" as="geometry" />
        </mxCell>
        <mxCell id="8YqOOLgah7Gyamwj7_4v-1" value="User" style="shape=umlActor;verticalLabelPosition=bottom;verticalAlign=top;html=1;outlineConnect=0;" vertex="1" parent="1">
          <mxGeometry x="30" y="510" width="30" height="60" as="geometry" />
        </mxCell>
        <mxCell id="8YqOOLgah7Gyamwj7_4v-3" value="CRUD Debt Account" style="ellipse;whiteSpace=wrap;html=1;" vertex="1" parent="1">
          <mxGeometry x="260" y="360" width="120" height="80" as="geometry" />
        </mxCell>
        <mxCell id="8YqOOLgah7Gyamwj7_4v-7" value="CRUD Recurring Charges" style="ellipse;whiteSpace=wrap;html=1;" vertex="1" parent="1">
          <mxGeometry x="260" y="460" width="120" height="80" as="geometry" />
        </mxCell>
        <mxCell id="8YqOOLgah7Gyamwj7_4v-12" value="CRUD Income" style="ellipse;whiteSpace=wrap;html=1;" vertex="1" parent="1">
          <mxGeometry x="260" y="560" width="120" height="80" as="geometry" />
        </mxCell>
        <mxCell id="8YqOOLgah7Gyamwj7_4v-15" value="Calculate Debt Payment Rate" style="ellipse;whiteSpace=wrap;html=1;" vertex="1" parent="1">
          <mxGeometry x="490" y="160" width="120" height="80" as="geometry" />
        </mxCell>
        <mxCell id="8YqOOLgah7Gyamwj7_4v-16" value="Calculate Debt Interest" style="ellipse;whiteSpace=wrap;html=1;" vertex="1" parent="1">
          <mxGeometry x="490" y="260" width="120" height="80" as="geometry" />
        </mxCell>
        <mxCell id="8YqOOLgah7Gyamwj7_4v-23" value="" style="endArrow=none;html=1;exitX=1;exitY=0.5;exitDx=0;exitDy=0;entryX=0;entryY=0.5;entryDx=0;entryDy=0;" edge="1" parent="1" source="8YqOOLgah7Gyamwj7_4v-3" target="8YqOOLgah7Gyamwj7_4v-15">
          <mxGeometry width="50" height="50" relative="1" as="geometry">
            <mxPoint x="410" y="330" as="sourcePoint" />
            <mxPoint x="460" y="280" as="targetPoint" />
          </mxGeometry>
        </mxCell>
        <mxCell id="8YqOOLgah7Gyamwj7_4v-24" value="" style="endArrow=none;html=1;exitX=1;exitY=0.5;exitDx=0;exitDy=0;entryX=0;entryY=0.5;entryDx=0;entryDy=0;" edge="1" parent="1" source="8YqOOLgah7Gyamwj7_4v-3" target="8YqOOLgah7Gyamwj7_4v-16">
          <mxGeometry width="50" height="50" relative="1" as="geometry">
            <mxPoint x="490" y="530" as="sourcePoint" />
            <mxPoint x="540" y="480" as="targetPoint" />
          </mxGeometry>
        </mxCell>
        <mxCell id="8YqOOLgah7Gyamwj7_4v-25" value="" style="endArrow=none;html=1;exitX=0.5;exitY=0.5;exitDx=0;exitDy=0;exitPerimeter=0;entryX=0;entryY=0.5;entryDx=0;entryDy=0;" edge="1" parent="1" source="8YqOOLgah7Gyamwj7_4v-1" target="8YqOOLgah7Gyamwj7_4v-3">
          <mxGeometry width="50" height="50" relative="1" as="geometry">
            <mxPoint x="300" y="630" as="sourcePoint" />
            <mxPoint x="350" y="580" as="targetPoint" />
          </mxGeometry>
        </mxCell>
        <mxCell id="8YqOOLgah7Gyamwj7_4v-26" value="" style="endArrow=none;html=1;exitX=0.5;exitY=0.5;exitDx=0;exitDy=0;exitPerimeter=0;entryX=0;entryY=0.5;entryDx=0;entryDy=0;" edge="1" parent="1" source="8YqOOLgah7Gyamwj7_4v-1" target="8YqOOLgah7Gyamwj7_4v-7">
          <mxGeometry width="50" height="50" relative="1" as="geometry">
            <mxPoint x="200" y="620" as="sourcePoint" />
            <mxPoint x="250" y="570" as="targetPoint" />
          </mxGeometry>
        </mxCell>
        <mxCell id="8YqOOLgah7Gyamwj7_4v-27" value="" style="endArrow=none;html=1;exitX=0.5;exitY=0.5;exitDx=0;exitDy=0;exitPerimeter=0;entryX=0;entryY=0.5;entryDx=0;entryDy=0;" edge="1" parent="1" source="8YqOOLgah7Gyamwj7_4v-1" target="8YqOOLgah7Gyamwj7_4v-12">
          <mxGeometry width="50" height="50" relative="1" as="geometry">
            <mxPoint x="230" y="670" as="sourcePoint" />
            <mxPoint x="280" y="620" as="targetPoint" />
          </mxGeometry>
        </mxCell>
        <mxCell id="8YqOOLgah7Gyamwj7_4v-28" value="Database/&lt;br&gt;Flat-file" style="shape=umlActor;verticalLabelPosition=bottom;verticalAlign=top;html=1;outlineConnect=0;" vertex="1" parent="1">
          <mxGeometry x="780" y="470" width="30" height="60" as="geometry" />
        </mxCell>
        <mxCell id="8YqOOLgah7Gyamwj7_4v-30" value="" style="endArrow=none;html=1;exitX=1;exitY=0.5;exitDx=0;exitDy=0;entryX=0.5;entryY=0.5;entryDx=0;entryDy=0;entryPerimeter=0;" edge="1" parent="1" source="8YqOOLgah7Gyamwj7_4v-3" target="8YqOOLgah7Gyamwj7_4v-28">
          <mxGeometry width="50" height="50" relative="1" as="geometry">
            <mxPoint x="470" y="630" as="sourcePoint" />
            <mxPoint x="520" y="580" as="targetPoint" />
          </mxGeometry>
        </mxCell>
        <mxCell id="8YqOOLgah7Gyamwj7_4v-31" value="" style="endArrow=none;html=1;exitX=1;exitY=0.5;exitDx=0;exitDy=0;entryX=0.5;entryY=0.5;entryDx=0;entryDy=0;entryPerimeter=0;" edge="1" parent="1" source="8YqOOLgah7Gyamwj7_4v-7" target="8YqOOLgah7Gyamwj7_4v-28">
          <mxGeometry width="50" height="50" relative="1" as="geometry">
            <mxPoint x="460" y="620" as="sourcePoint" />
            <mxPoint x="775" y="462" as="targetPoint" />
          </mxGeometry>
        </mxCell>
        <mxCell id="8YqOOLgah7Gyamwj7_4v-32" value="" style="endArrow=none;html=1;exitX=1;exitY=0.5;exitDx=0;exitDy=0;entryX=0.5;entryY=0.5;entryDx=0;entryDy=0;entryPerimeter=0;" edge="1" parent="1" source="8YqOOLgah7Gyamwj7_4v-12" target="8YqOOLgah7Gyamwj7_4v-28">
          <mxGeometry width="50" height="50" relative="1" as="geometry">
            <mxPoint x="460" y="620" as="sourcePoint" />
            <mxPoint x="510" y="570" as="targetPoint" />
          </mxGeometry>
        </mxCell>
        <mxCell id="8YqOOLgah7Gyamwj7_4v-33" value="Authentication" style="shape=umlActor;verticalLabelPosition=bottom;verticalAlign=top;html=1;outlineConnect=0;" vertex="1" parent="1">
          <mxGeometry x="780" y="670" width="30" height="60" as="geometry" />
        </mxCell>
        <mxCell id="8YqOOLgah7Gyamwj7_4v-35" value="Log In" style="ellipse;whiteSpace=wrap;html=1;" vertex="1" parent="1">
          <mxGeometry x="260" y="660" width="120" height="80" as="geometry" />
        </mxCell>
        <mxCell id="8YqOOLgah7Gyamwj7_4v-36" value="" style="endArrow=none;html=1;exitX=0.5;exitY=0.5;exitDx=0;exitDy=0;exitPerimeter=0;entryX=0;entryY=0.5;entryDx=0;entryDy=0;" edge="1" parent="1" source="8YqOOLgah7Gyamwj7_4v-1" target="8YqOOLgah7Gyamwj7_4v-35">
          <mxGeometry width="50" height="50" relative="1" as="geometry">
            <mxPoint x="170" y="790" as="sourcePoint" />
            <mxPoint x="220" y="740" as="targetPoint" />
          </mxGeometry>
        </mxCell>
        <mxCell id="8YqOOLgah7Gyamwj7_4v-37" value="" style="endArrow=none;html=1;exitX=1;exitY=0.5;exitDx=0;exitDy=0;entryX=0.5;entryY=0.5;entryDx=0;entryDy=0;entryPerimeter=0;" edge="1" parent="1" source="8YqOOLgah7Gyamwj7_4v-35" target="8YqOOLgah7Gyamwj7_4v-33">
          <mxGeometry width="50" height="50" relative="1" as="geometry">
            <mxPoint x="520" y="810" as="sourcePoint" />
            <mxPoint x="570" y="760" as="targetPoint" />
          </mxGeometry>
        </mxCell>
        <mxCell id="8YqOOLgah7Gyamwj7_4v-38" value="Credit Score" style="ellipse;whiteSpace=wrap;html=1;" vertex="1" parent="1">
          <mxGeometry x="260" y="800" width="120" height="80" as="geometry" />
        </mxCell>
        <mxCell id="8YqOOLgah7Gyamwj7_4v-39" value="" style="endArrow=none;html=1;exitX=0.5;exitY=0.5;exitDx=0;exitDy=0;exitPerimeter=0;entryX=0;entryY=0.5;entryDx=0;entryDy=0;" edge="1" parent="1" source="8YqOOLgah7Gyamwj7_4v-1" target="8YqOOLgah7Gyamwj7_4v-38">
          <mxGeometry width="50" height="50" relative="1" as="geometry">
            <mxPoint x="130" y="800" as="sourcePoint" />
            <mxPoint x="180" y="750" as="targetPoint" />
          </mxGeometry>
        </mxCell>
      </root>
    </mxGraphModel>
  </diagram>
</mxfile>
